<svg xmlns="http://www.w3.org/2000/svg" id="Ebene_2" data-name="Ebene 2" viewBox="0 0 134.56 134.56"><defs><style>.cls-1,.cls-6,.cls-9{fill:none;}.cls-1{stroke:#f1ab2f;stroke-width:7px;}.cls-1,.cls-2,.cls-3,.cls-4,.cls-6,.cls-7,.cls-8,.cls-9{stroke-miterlimit:10;}.cls-2{fill:#565555;}.cls-2,.cls-3,.cls-4,.cls-6,.cls-8{stroke:#565555;}.cls-3{fill:#dadada;}.cls-10,.cls-4,.cls-7{fill:#fff;}.cls-5,.cls-8{fill:#f1ab2f;}.cls-7,.cls-9{stroke:#fff;}.cls-7{stroke-width:0.5px;}.cls-9{stroke-width:3px;}.cls-11{fill:#565656;}</style></defs><circle class="cls-1" cx="67.28" cy="67.28" r="63.78"/><path class="cls-2" d="M141.08,324.27a15.1,15.1,0,0,1,0,4.48,15.35,15.35,0,0,1-1.06,3.76,7.48,7.48,0,0,1-1.41,2.51,4,4,0,0,1-2.27,1.45,2.82,2.82,0,0,1-2.55-.79,2.52,2.52,0,0,1-.35-2,7.46,7.46,0,0,1,.9-1.85c.26-.47.46-.86.59-1.09a3.1,3.1,0,0,0-1.41.55,4.21,4.21,0,0,0-1.45,3.21,4.59,4.59,0,0,0,.39,2.74,4.12,4.12,0,0,0,3.17,2.24,4.72,4.72,0,0,0,3.06-1.1,11.72,11.72,0,0,0,3.45-4,24.06,24.06,0,0,0,2-3.88,26,26,0,0,0,1.6-5.8,7.42,7.42,0,0,0-1-.23,10,10,0,0,0-1.7-.11C142.61,324.36,141.93,324.34,141.08,324.27Z" transform="translate(-75.18 -217.67)"/><path class="cls-2" d="M145.35,324.48c.74.43,1.55.87,2.44,1.29s1.62.73,2.36,1a10,10,0,0,1,.67-1.49,10.19,10.19,0,0,1,1-1.47,10.61,10.61,0,0,1,1.26-1.39,5.9,5.9,0,0,1-3.45,1.44,5.46,5.46,0,0,1-2.27-.33,2.09,2.09,0,0,0-1.1.17A2.12,2.12,0,0,0,145.35,324.48Z" transform="translate(-75.18 -217.67)"/><path class="cls-3" d="M143.79,324.2a19.13,19.13,0,0,1-2.19,6.87,13.92,13.92,0,0,1-1.76,2.67c-.35.38-.66.68-.89.89a16.33,16.33,0,0,0,1.65-3.74,15.81,15.81,0,0,0,.61-3.41,15.55,15.55,0,0,0-.13-3.4q.72.06,1.47.09Z" transform="translate(-75.18 -217.67)"/><path class="cls-2" d="M130.37,324.35c2.66.18,3.3,0,3.36-.29,0-.06,0-.17-.14-.38a5.05,5.05,0,0,0-.73-1.07,4.87,4.87,0,0,0-.78-.79,5.34,5.34,0,0,0-1-.53c-.64-.28-1.14-.46-1.25-.5-.49-.18-1.2-.45-2.08-.83a8.79,8.79,0,0,1,1.7,2.09A8.88,8.88,0,0,1,130.37,324.35Z" transform="translate(-75.18 -217.67)"/><path class="cls-2" d="M128.11,315.15a5.42,5.42,0,0,0-2.64-1.12,4.77,4.77,0,0,0-2.41.26,3.9,3.9,0,0,0-1.78,1.31,3.46,3.46,0,0,0-.74,2.23c.07,1.21.91,2,1.82,2.94.65.65.79.59,1.57,1.3a18,18,0,0,1,2.19,2.56c1,1.31,1.6,2.13,2.73,3.71a6.1,6.1,0,0,1,1.18,2,4.6,4.6,0,0,1,0,1.91,5,5,0,0,0,1.26-2c.45-1.38,0-2.5-.57-4.57-.52-1.72-1.46-4.83-3.45-6a6.89,6.89,0,0,1-1.27-.92c-.59-.55-1.34-1.23-1.2-1.89.09-.46.56-.71,1.25-1.08A6.67,6.67,0,0,1,128.11,315.15Z" transform="translate(-75.18 -217.67)"/><path class="cls-2" d="M147.64,315.81a4.7,4.7,0,0,1,2.09-2.93,4.92,4.92,0,0,1,4.47,0,5.88,5.88,0,0,1,2.69,2.47,7.62,7.62,0,0,1,.64,5.32c-.77,4.13-3.41,4.73-4.43,8.57a11.34,11.34,0,0,0,.14,5.92c-.61-.52-3.79-3.27-3.47-6.73A9.2,9.2,0,0,1,151,325c1.12-2,2-2,2.64-3.62.12-.33,1-2.55-.23-4.23a4.29,4.29,0,0,0-2.67-1.56A5.34,5.34,0,0,0,147.64,315.81Z" transform="translate(-75.18 -217.67)"/><path class="cls-2" d="M185.52,292.42a15.78,15.78,0,0,0-.1-1.8,17.59,17.59,0,0,0-.32-1.83c-.07-.36-.24-1.11-.52-2.09a15.48,15.48,0,0,0-.78-2.33,10.25,10.25,0,0,0-1.36-2.12,7.64,7.64,0,0,0-2.33-2.11,12.51,12.51,0,0,0-1.49-.65c-.6-.24-1.13-.42-1.38-.5a9.35,9.35,0,0,0-4.5-.18,9.18,9.18,0,0,0-3.6,1.56,9.87,9.87,0,0,0-2.12,2.24,15.24,15.24,0,0,0-1.16,2c-.71,1.37-.69,1.66-1.57,3.7a25.36,25.36,0,0,1-1.63,3.37c-.52.87-1,1.56-1.52,2.27a19.83,19.83,0,0,1-1.41,1.83,17.56,17.56,0,0,1-1.22,1.27l-1.57,1.41-1.86,1.32-2.25.56-2.92-.17v0a26.61,26.61,0,0,1,.47-2.94,26.32,26.32,0,0,1,2.66-6.9c2.61-5,3.92-7.51,4.55-10.19a22.35,22.35,0,0,0-.16-10.34,20.1,20.1,0,0,0-4.7-9.88,17.89,17.89,0,0,0-9.25-5.49c-6.63-1.48-11.92,1.53-13.64,2.51a20.47,20.47,0,0,0-9.09,10.35,19.1,19.1,0,0,0-.78,11.28,51.32,51.32,0,0,0,3.28,7.93c.84,1.78,1.09,2.16,1.73,3.52a62.88,62.88,0,0,1,3.51,9.08,3.56,3.56,0,0,1,.06.4,3.73,3.73,0,0,1-2,1.78,4.34,4.34,0,0,1-2.17.05,9,9,0,0,1-2-.65c-.25-.1-.9-.37-1.75-.81a11,11,0,0,1-2.17-1.33c-.23-.21-.6-.62-1.33-1.44s-.79-.93-1.41-1.62-1.13-1.22-1.49-1.59c-.61-.63-1.13-1.13-1.52-1.49-.55-.53-.83-.79-1.25-1.13-.27-.21-.72-.57-1.33-1a11.33,11.33,0,0,0-2-1.1,8.67,8.67,0,0,0-1.93-.55,7.59,7.59,0,0,0-2.59,0,7.76,7.76,0,0,0-2.61,1,11,11,0,0,0-2.33,1.75,8.76,8.76,0,0,0-1.59,2.12,9.47,9.47,0,0,0-.84,3.08,20,20,0,0,0,0,4.71c.23,2.3.35,3.48,1.15,4.88a8,8,0,0,0,2.45,2.67,4.54,4.54,0,0,0,3,1.07,4.21,4.21,0,0,0,2.48-1.26,4,4,0,0,0,1.2-1.77,4.26,4.26,0,0,0,.16-1.57,2.45,2.45,0,0,0-.29-1.28c-.33-.52-.94-.87-1.12-.73s0,.25,0,.91c0,.18,0,.4,0,.84a8.78,8.78,0,0,1,0,1.2,2.16,2.16,0,0,1-.5,1.1,2.19,2.19,0,0,1-1.41.6,2.73,2.73,0,0,1-1.15-.11,3.39,3.39,0,0,1-.81-.39,3.7,3.7,0,0,1-1.77-2.17,6,6,0,0,1-.34-1.3,10.19,10.19,0,0,1-.11-2.28,13.62,13.62,0,0,1,.39-2.51,8.08,8.08,0,0,1,1-2.53,5.3,5.3,0,0,1,1.15-1.36,5.59,5.59,0,0,1,1.91-1,5.89,5.89,0,0,1,2.38-.18,6.52,6.52,0,0,1,2.24.65c.45.23,1.05.56,1.73,1a24.06,24.06,0,0,1,2.61,1.94c.6.51.67.62,1.65,1.54a34,34,0,0,0,3.86,3.34,18.33,18.33,0,0,0,2.41,1.46,10.23,10.23,0,0,0,2.9,1.18,9.34,9.34,0,0,0,3.26,0,11.93,11.93,0,0,0,1.7-.37,3.4,3.4,0,0,0,.42-.68.36.36,0,0,1,0-.09,6.61,6.61,0,0,1-.43,1.57,9.36,9.36,0,0,1-2.94,3.75,9.1,9.1,0,0,1-4.49,1.78c-1.84.18-2-.43-4.53-.71-1.71-.19-5-.56-7.6,1.38a6.16,6.16,0,0,0-2.12,2.72,6.86,6.86,0,0,0,.57,5.53,8.58,8.58,0,0,0,3.8,3.46A13.66,13.66,0,0,0,115.7,325a29.53,29.53,0,0,0,6.5.26c1.76-.06,3.21-.19,4.19-.29a13.89,13.89,0,0,0-3.47-3.73,32,32,0,0,1-4.5.14,17.53,17.53,0,0,1-3.66-.45,5.39,5.39,0,0,1-1.68-.65c-.39-.24-1.64-1-1.62-2a1.94,1.94,0,0,1,.79-1.3c2-1.72,7.52.39,8.28.69a4.19,4.19,0,0,1,1.16-2.54,4.44,4.44,0,0,1,3.42-1.15,5.1,5.1,0,0,1,2.55.85,20.12,20.12,0,0,0,2.58-1.85,19.9,19.9,0,0,0,2-1.92,24.52,24.52,0,0,0,2.33-3c-.56,1.23-1.15,2.32-1.74,3.38-.79,1.46-1.52,2.64-2.07,3.49a4,4,0,0,1,1.25.42,4.22,4.22,0,0,1,1.22,1l4.62.12a51.14,51.14,0,0,0,2.62-4.68c.65-1.31,1.19-2.43,1.63-3.5h0a20.72,20.72,0,0,1-2,4.28l.71,4,2.35,0,2.47,0,1-.42a32.69,32.69,0,0,0-1.25-7c-.26-.88-.54-1.67-1-3.26h0a14.08,14.08,0,0,0,2.29,3.66,14.69,14.69,0,0,0,3.55,3,5.62,5.62,0,0,1,6.79,2.88,48.26,48.26,0,0,0,8.08.39c6.09-.2,9.32-1.44,10.34.08s-1.07,4.38-1.41,4.86a11.63,11.63,0,0,1-6.7,4.19,19,19,0,0,1-11.48-.47,13.66,13.66,0,0,0-1.17,1.52,14.15,14.15,0,0,0-1.15,2c1.11.59,13.09,6.76,22.78,1,1.37-.82,5.74-3.41,7.32-8.66.34-1.13,1.88-6.23-.74-9.45-3-3.67-9.91-3-14.93-2.5-4.24.41-7,1.49-10.72.29a11.23,11.23,0,0,1-4.73-2.89h0a4.09,4.09,0,0,0,.45.27,2.42,2.42,0,0,0,.47.21,2.9,2.9,0,0,0,1.37,0,5.91,5.91,0,0,0,1.21-.28,11.71,11.71,0,0,0,3-1.46,11.37,11.37,0,0,0,3-3.53c.38-.6.27-.51,1.34-2.61,1.26-2.48,1.37-2.52,2.19-4.2.47-1,.37-.82,1.49-3.19a29.38,29.38,0,0,1,1.7-3.14,14.07,14.07,0,0,1,2-2.74,6.5,6.5,0,0,1,2.77-2,5.48,5.48,0,0,1,5,.89,6.34,6.34,0,0,1,1.53,1.78,10.68,10.68,0,0,1,1.19,2.51,14.29,14.29,0,0,1,.59,3.08,19.89,19.89,0,0,1,.18,2.58,13.86,13.86,0,0,1-.24,2.85,9.29,9.29,0,0,1-.94,2.85,6.51,6.51,0,0,1-1.93,2.35,3.51,3.51,0,0,1-2.83,1,2.57,2.57,0,0,1-1.74-1.4,5.44,5.44,0,0,1-.29-1.6,8.11,8.11,0,0,0-.08-.89,7,7,0,0,0-.23-1,3.33,3.33,0,0,0-.58.89,3.67,3.67,0,0,0-.26,1.52,5.6,5.6,0,0,0,.34,2.3,4.54,4.54,0,0,0,1,1.62,4.41,4.41,0,0,0,1.15.81,4.36,4.36,0,0,0,1.46.36,4.89,4.89,0,0,0,1.49,0,5,5,0,0,0,1.86-.75,8.41,8.41,0,0,0,1.62-1.34,11.37,11.37,0,0,0,1.28-1.56,15.06,15.06,0,0,0,1.17-2.07,13.93,13.93,0,0,0,1.1-3.55,23.34,23.34,0,0,0,.21-2.35C185.53,293.14,185.52,292.6,185.52,292.42Z" transform="translate(-75.18 -217.67)"/><path class="cls-3" d="M142.31,307.61c.29.74.66,1.77,1,3a24.35,24.35,0,0,1,.6,2.5,18.26,18.26,0,0,1,.24,3.66l-1.95,0-1.44,0-.4-2.27-.31-1.77a21.08,21.08,0,0,0,1.53-3.05C141.89,308.94,142.12,308.25,142.31,307.61Z" transform="translate(-75.18 -217.67)"/><path class="cls-2" d="M141.77,315.73c.18,0,.33.39.33.87s-.12.87-.3.87-.32-.38-.33-.86S141.6,315.73,141.77,315.73Z" transform="translate(-75.18 -217.67)"/><path class="cls-2" d="M143.47,315.78c.17,0,.33.38.34.86s-.12.88-.3.88-.32-.38-.34-.86S143.3,315.78,143.47,315.78Z" transform="translate(-75.18 -217.67)"/><path class="cls-4" d="M154.56,300.44" transform="translate(-75.18 -217.67)"/><ellipse class="cls-2" cx="170.9" cy="285.44" rx="0.87" ry="0.32" transform="translate(-234.59 28) rotate(-52.22)"/><ellipse class="cls-2" cx="169.05" cy="288.02" rx="0.87" ry="0.32" transform="translate(-239.44 91.22) rotate(-63.17)"/><path class="cls-5" d="M153.1,316.72a4.26,4.26,0,0,0-2.35-1.18,7.87,7.87,0,0,0-3.29.31,17.19,17.19,0,0,0-1.67.78l-.19,0-12.22-.24a.59.59,0,0,1-.45-.22,3.39,3.39,0,0,0-1.2-1A4.71,4.71,0,0,0,129,315a8,8,0,0,0-2.36.56,7.13,7.13,0,0,0-1.7,1,.58.58,0,0,0-.13.8c.07.1.12.28.27.53a3.81,3.81,0,0,0,1.86,1.6,27.75,27.75,0,0,0,3.55,1.54,5,5,0,0,1,1.73.89,8.07,8.07,0,0,1,.82.89,5,5,0,0,1,.32.45,4,4,0,0,1,.37.79l1.32,0,6.19.18c.9,0,2.24.1,3.87.23a.59.59,0,0,0,.54-.26,1.68,1.68,0,0,1,.28-.34,1.78,1.78,0,0,1,1.43-.36,5.35,5.35,0,0,0,4.26-.25,4.58,4.58,0,0,0,2.35-2.84A4.19,4.19,0,0,0,153.1,316.72Zm-21.5-.07a.59.59,0,0,1-.68.58,8.32,8.32,0,0,0-2.22,0,.57.57,0,0,1-.66-.56v-.13a.58.58,0,0,1,.44-.58,5,5,0,0,1,1.77-.14,4.68,4.68,0,0,1,.93.17.57.57,0,0,1,.43.57Z" transform="translate(-75.18 -217.67)"/><ellipse class="cls-2" cx="167.26" cy="291.25" rx="0.87" ry="0.32" transform="translate(-243.32 91.39) rotate(-63.17)"/><ellipse class="cls-2" cx="165.82" cy="294.62" rx="0.87" ry="0.32" transform="translate(-247.11 91.96) rotate(-63.17)"/><ellipse class="cls-2" cx="164" cy="298.01" rx="0.87" ry="0.32" transform="translate(-251.27 73.36) rotate(-60)"/><ellipse class="cls-2" cx="162.57" cy="300.87" rx="0.87" ry="0.32" transform="translate(-254.46 73.55) rotate(-60)"/><ellipse class="cls-2" cx="160.8" cy="303.42" rx="0.87" ry="0.32" transform="translate(-248.02 4.43) rotate(-48.38)"/><ellipse class="cls-2" cx="158.83" cy="305.16" rx="0.87" ry="0.32" transform="translate(-218.44 -77.12) rotate(-33.92)"/><path class="cls-2" d="M157.46,306.19c0,.17-.3.41-.77.53s-.88.07-.92-.1.32-.32.76-.52S157.36,305.86,157.46,306.19Z" transform="translate(-75.18 -217.67)"/><path class="cls-4" d="M162.71,308" transform="translate(-75.18 -217.67)"/><path class="cls-4" d="M151.48,301.12" transform="translate(-75.18 -217.67)"/><path class="cls-3" d="M128.22,305.09a5.89,5.89,0,0,1-.54,1.33,6.79,6.79,0,0,1-1.31,1.65,11.27,11.27,0,0,1-6.11-1.36,14.14,14.14,0,0,1-3-2.09,22,22,0,0,1-2.9-3.16c-.78-1-1-1.36-1.86-2.35-.61-.7-.93-.94-1.67-1.73s-1.47-1.65-1.87-2.15c.78.53,1.42,1,1.9,1.33a22.24,22.24,0,0,1,2.15,1.68c.53.51.56.63,1.28,1.31.49.47.88.79,1.33,1.18s.94.78,1.94,1.54a22.57,22.57,0,0,0,2.88,2,12.75,12.75,0,0,0,2,.81,8,8,0,0,0,1.73.35,14.78,14.78,0,0,0,2.75-.22Z" transform="translate(-75.18 -217.67)"/><path class="cls-4" d="M132.67,306.06" transform="translate(-75.18 -217.67)"/><ellipse class="cls-2" cx="113.45" cy="300.81" rx="0.32" ry="0.87" transform="translate(-246.73 -65.63) rotate(-41.77)"/><ellipse class="cls-2" cx="115.44" cy="303.22" rx="0.32" ry="0.87" transform="translate(-247.84 -63.69) rotate(-41.77)"/><ellipse class="cls-2" cx="117.73" cy="305.39" rx="0.32" ry="0.87" transform="matrix(0.57, -0.82, 0.82, 0.57, -275.19, 9.2)"/><ellipse class="cls-2" cx="120.36" cy="307.14" rx="0.32" ry="0.87" transform="translate(-284.18 70.78) rotate(-65.35)"/><ellipse class="cls-2" cx="123.33" cy="308.23" rx="0.32" ry="0.87" transform="matrix(0.14, -0.99, 0.99, 0.14, -274.28, 169.67)"/><path class="cls-2" d="M123.19,306.74c-.07.16-.49.13-.92-.07s-.74-.5-.66-.65.48-.13.92.07S123.26,306.58,123.19,306.74Z" transform="translate(-75.18 -217.67)"/><ellipse class="cls-2" cx="119.43" cy="304.83" rx="0.32" ry="0.87" transform="matrix(0.57, -0.82, 0.82, 0.57, -274, 10.36)"/><ellipse class="cls-2" cx="117.3" cy="303.22" rx="0.32" ry="0.87" transform="translate(-264.99 -21.18) rotate(-49.69)"/><ellipse class="cls-2" cx="115.28" cy="301.5" rx="0.32" ry="0.87" transform="translate(-246.73 -64.24) rotate(-41.77)"/><path class="cls-4" d="M112.6,308.59" transform="translate(-75.18 -217.67)"/><path class="cls-4" d="M134.86,291.38a4.41,4.41,0,0,0,.63,1.41,4.49,4.49,0,0,0,2.17,1.73,5.05,5.05,0,0,0,2.92.08,5.62,5.62,0,0,0,3.69-2.3,6.65,6.65,0,0,0,1-2" transform="translate(-75.18 -217.67)"/><path class="cls-6" d="M134.81,288.68" transform="translate(-75.18 -217.67)"/><path class="cls-6" d="M144.35,285" transform="translate(-75.18 -217.67)"/><path class="cls-7" d="M143.09,269.73a12.06,12.06,0,0,1,2.35.47,9,9,0,0,1,2.27.94,8.2,8.2,0,0,1,1.69,1.33,5.45,5.45,0,0,1,1,1.22,17.4,17.4,0,0,0-1.38-1.2,8.51,8.51,0,0,0-1.59-.92,8,8,0,0,0-1.09-.39,13.88,13.88,0,0,0-2.16-.4l-1.06-.11Z" transform="translate(-75.18 -217.67)"/><path class="cls-8" d="M131.6,316.53v.12a.59.59,0,0,1-.68.58,8.32,8.32,0,0,0-2.22,0,.57.57,0,0,1-.66-.56v-.13a.58.58,0,0,1,.44-.58,5,5,0,0,1,1.77-.14,4.68,4.68,0,0,1,.93.17A.57.57,0,0,1,131.6,316.53Z" transform="translate(-75.18 -217.67)"/><path class="cls-2" d="M131.6,316.53v.12a.59.59,0,0,1-.68.58,8.32,8.32,0,0,0-2.22,0,.57.57,0,0,1-.66-.56v-.13a.58.58,0,0,1,.44-.58,5,5,0,0,1,1.77-.14,4.68,4.68,0,0,1,.93.17A.57.57,0,0,1,131.6,316.53Z" transform="translate(-75.18 -217.67)"/><path class="cls-2" d="M147.46,317.18h0a.59.59,0,0,0,.69.55,9.13,9.13,0,0,1,1.13-.1,9.68,9.68,0,0,1,1.14.07.58.58,0,0,0,.65-.61v-.05a.57.57,0,0,0-.3-.48,2.93,2.93,0,0,0-1.22-.37,3,3,0,0,0-1.81.46A.56.56,0,0,0,147.46,317.18Z" transform="translate(-75.18 -217.67)"/><path class="cls-6" d="M109,320" transform="translate(-75.18 -217.67)"/><path class="cls-6" d="M110.37,319.12" transform="translate(-75.18 -217.67)"/><path class="cls-6" d="M127.2,320.09" transform="translate(-75.18 -217.67)"/><path class="cls-6" d="M130.71,337.1" transform="translate(-75.18 -217.67)"/><ellipse class="cls-2" cx="128.3" cy="328.98" rx="0.8" ry="0.24" transform="translate(-280.29 227.62) rotate(-87.93)"/><ellipse class="cls-2" cx="127.64" cy="326.9" rx="0.13" ry="0.8" transform="translate(-238.74 -86.63) rotate(-34.75)"/><path class="cls-6" d="M150.16,312.37" transform="translate(-75.18 -217.67)"/><path class="cls-6" d="M147.66,315.25" transform="translate(-75.18 -217.67)"/><path class="cls-6" d="M159.68,332.44" transform="translate(-75.18 -217.67)"/><path class="cls-6" d="M133.36,323.05" transform="translate(-75.18 -217.67)"/><path class="cls-6" d="M133.88,324.71" transform="translate(-75.18 -217.67)"/><path class="cls-6" d="M132.25,321.45" transform="translate(-75.18 -217.67)"/><path class="cls-6" d="M134.26,325" transform="translate(-75.18 -217.67)"/><path class="cls-5" d="M132,324.42a7,7,0,0,1-.49,2.86,3.73,3.73,0,0,1-.16.35c-.13-.52-.28-1.06-.45-1.61s-.36-1.14-.54-1.67l.83,0Z" transform="translate(-75.18 -217.67)"/><path class="cls-5" d="M146.38,325.05c0,.36,0,.9,0,1.54,0,2.13.08,4.16,1.3,5a1.37,1.37,0,0,0,1.13.32c.59-.2.8-1.12.88-1.52a4.92,4.92,0,0,0,.09-1.23,8.1,8.1,0,0,1,.39-2.42c-.57-.21-1.18-.46-1.8-.75S147,325.38,146.38,325.05Z" transform="translate(-75.18 -217.67)"/><path class="cls-6" d="M143.87,329.29" transform="translate(-75.18 -217.67)"/><path class="cls-6" d="M146.38,325.75" transform="translate(-75.18 -217.67)"/><ellipse class="cls-2" cx="151.47" cy="333.82" rx="0.24" ry="0.8" transform="translate(-260.42 -28.79) rotate(-42.3)"/><ellipse class="cls-2" cx="150.2" cy="331.92" rx="0.16" ry="0.8" transform="translate(-197.35 -127.72) rotate(-24.03)"/><path class="cls-2" d="M123.18,329.88c-.9,2.13-1.26,3.05-1.21,4.35a5,5,0,0,0,.82,2.87,4.63,4.63,0,0,0,7.92-.32,5.51,5.51,0,0,1-1.45.39c-.64.09-2.37.32-3-.53s.18-2.94.84-4.29a21.3,21.3,0,0,1,1.14-2c.39-.6.75-1.08,1-1.43-.65-1-1.36-2-2.11-3-.24-.33-.48-.64-.72-.95l-1.13.11C124.73,326.29,124,327.92,123.18,329.88Z" transform="translate(-75.18 -217.67)"/><path class="cls-6" d="M181.58,331.16" transform="translate(-75.18 -217.67)"/><path class="cls-2" d="M141.24,312.67c.17,0,.36.35.42.83s0,.88-.22.9-.36-.35-.41-.83S141.07,312.69,141.24,312.67Z" transform="translate(-75.18 -217.67)"/><path class="cls-2" d="M143.19,312c.17,0,.36.36.41.83s0,.89-.21.91-.36-.35-.42-.83S143,312,143.19,312Z" transform="translate(-75.18 -217.67)"/><path class="cls-2" d="M142.55,325.52c.18,0,.28.42.23.9s-.23.86-.41.84-.27-.42-.22-.9S142.38,325.5,142.55,325.52Z" transform="translate(-75.18 -217.67)"/><path class="cls-2" d="M141,325.62c.17,0,.33.38.36.86s-.11.88-.28.89-.33-.38-.36-.86S140.82,325.63,141,325.62Z" transform="translate(-75.18 -217.67)"/><path class="cls-2" d="M140.91,328.15c.14,0,.2.38.12.79s-.24.74-.38.71-.2-.38-.13-.79S140.76,328.12,140.91,328.15Z" transform="translate(-75.18 -217.67)"/><path class="cls-2" d="M142,328.42c.13,0,.18.39.1.83s-.25.77-.38.75-.18-.4-.1-.84S141.88,328.39,142,328.42Z" transform="translate(-75.18 -217.67)"/><path class="cls-2" d="M140.3,331.35c.16.06.17.47,0,.93s-.41.78-.58.72-.17-.47,0-.92S140.13,331.3,140.3,331.35Z" transform="translate(-75.18 -217.67)"/><path class="cls-9" d="M162.61,269.56" transform="translate(-75.18 -217.67)"/><path class="cls-7" d="M134.57,269.77a12.06,12.06,0,0,0-2.35.47,9,9,0,0,0-2.27.94,8.2,8.2,0,0,0-1.69,1.33,5.81,5.81,0,0,0-1,1.22s.5-.55,1.38-1.2a8.51,8.51,0,0,1,1.59-.92,8,8,0,0,1,1.09-.39,13.88,13.88,0,0,1,2.16-.4l1.06-.11Z" transform="translate(-75.18 -217.67)"/><path class="cls-5" d="M156.16,229.81l-36.73,4L131.09,250c-1.22,2.78-2.45,5.56-3.67,8.33a20.14,20.14,0,0,1,9-1.7,27.65,27.65,0,0,1,6.93,1,28.47,28.47,0,0,1,6.76,2.91,19.74,19.74,0,0,1,4.31,3.18,20,20,0,0,1,2.3,2.74l1.23-7.21h1l17.09-1.9Z" transform="translate(-75.18 -217.67)"/><path class="cls-5" d="M169.83,259.39a9,9,0,0,0-.85-1.29l-1.55.18a10.72,10.72,0,0,1,2,3.06,6.44,6.44,0,0,1-.15,5.93c-.69,1.54-1.08,1.42-2.11,3.13a24.9,24.9,0,0,0-1.91,4.47,29,29,0,0,0-1.22,3.86,43.53,43.53,0,0,0-.59,4.76c-.12,1.24-.21,2.28-.27,3a4.44,4.44,0,0,0-.81,2.9c0,1.74.59,3.15,1.32,3.15s1.33-1.41,1.33-3.15a4,4,0,0,0-.95-3c.08-.92.19-2.15.36-3.6.25-2.15.38-3.26.69-4.75a22.12,22.12,0,0,1,1.17-4.19,15.44,15.44,0,0,1,1.62-3.13c.58-.86.72-.85,1.37-1.85a11.6,11.6,0,0,0,1.42-2.74,6.47,6.47,0,0,0,.49-2.29,8.39,8.39,0,0,0-.69-3A10.11,10.11,0,0,0,169.83,259.39Z" transform="translate(-75.18 -217.67)"/><ellipse class="cls-2" cx="128.43" cy="337.1" rx="0.8" ry="0.24" transform="translate(-98.31 -207.93) rotate(-3.99)"/><ellipse class="cls-2" cx="125.87" cy="335.99" rx="0.24" ry="0.8" transform="translate(-268.54 -45.46) rotate(-42.3)"/><ellipse class="cls-2" cx="131.44" cy="329.76" rx="0.8" ry="0.24" transform="matrix(0.17, -0.99, 0.99, 0.17, -291.19, 184.92)"/><ellipse class="cls-10" cx="133.08" cy="281.01" rx="3.47" ry="4.79" transform="translate(-91.39 -209.41) rotate(-3.35)"/><ellipse class="cls-11" cx="133.68" cy="282.62" rx="2.53" ry="2.03" transform="translate(-251.26 107.39) rotate(-72.49)"/><ellipse class="cls-7" cx="134.88" cy="281.25" rx="0.28" ry="0.99" transform="translate(-192.79 -119.58) rotate(-28.42)"/><ellipse class="cls-10" cx="145.4" cy="281.01" rx="4.79" ry="3.47" transform="translate(-218.81 192.07) rotate(-86.65)"/><ellipse class="cls-11" cx="144.79" cy="282.59" rx="2.03" ry="2.57" transform="translate(-154.78 -159.74) rotate(-17.84)"/><ellipse class="cls-7" cx="145.75" cy="281.48" rx="0.38" ry="0.99" transform="translate(-166.95 -146.1) rotate(-21.16)"/></svg>